<?xml version="1.0" encoding="UTF-8" standalone="no"?>
<!DOCTYPE svg PUBLIC "-//W3C//DTD SVG 1.1//EN" "http://www.w3.org/Graphics/SVG/1.1/DTD/svg11.dtd">
<svg width="100%" height="100%" viewBox="0 0 30 30" version="1.1" xmlns="http://www.w3.org/2000/svg" xmlns:xlink="http://www.w3.org/1999/xlink" xml:space="preserve" xmlns:serif="http://www.serif.com/" style="fill-rule:evenodd;clip-rule:evenodd;stroke-linejoin:round;stroke-miterlimit:2;">
    <path d="M1,12L1,9L2,9L2,7L3,7L3,6L4,6L4,5L5,5L5,4L6,4L6,3L7,3L7,2L9,2L9,1L12,1L12,0L18,0L18,1L21,1L21,2L23,2L23,3L24,3L24,4L25,4L25,5L26,5L26,6L27,6L27,7L28,7L28,9L29,9L29,12L30,12L30,19L29,19L29,22L28,22L28,23L27,23L27,25L26,25L26,26L25,26L25,27L23,27L23,28L22,28L22,29L19,29L19,30L11,30L11,29L8,29L8,28L7,28L7,27L5,27L5,26L4,26L4,25L3,25L3,23L2,23L2,22L1,22L1,19L0,19L0,12L1,12ZM2,19L3,19L3,22L4,22L4,23L5,23L5,25L6,25L6,24L7,24L7,23L9,23L9,22L11,22L11,21L19,21L19,22L21,22L21,23L23,23L23,24L24,24L24,25L25,25L25,23L26,23L26,22L27,22L27,19L28,19L28,12L27,12L27,9L26,9L26,8L25,8L25,6L24,6L24,5L22,5L22,4L21,4L21,3L18,3L18,2L12,2L12,3L9,3L9,4L8,4L8,5L6,5L6,6L5,6L5,8L4,8L4,9L3,9L3,12L2,12L2,19ZM10,11L10,10L11,10L11,9L12,9L12,8L18,8L18,9L19,9L19,10L20,10L20,11L21,11L21,16L20,16L20,17L19,17L19,18L18,18L18,19L12,19L12,18L11,18L11,17L10,17L10,16L9,16L9,11L10,11Z"/>
</svg>
