<?xml version="1.0" encoding="UTF-8" standalone="no"?>
<!DOCTYPE svg PUBLIC "-//W3C//DTD SVG 1.1//EN" "http://www.w3.org/Graphics/SVG/1.1/DTD/svg11.dtd">
<svg width="100%" height="100%" viewBox="0 0 100 100" version="1.1" xmlns="http://www.w3.org/2000/svg" xmlns:xlink="http://www.w3.org/1999/xlink" xml:space="preserve" xmlns:serif="http://www.serif.com/" style="fill-rule:evenodd;clip-rule:evenodd;stroke-linejoin:round;stroke-miterlimit:2;">
    <g transform="matrix(1.03257,0,0,1.04545,-0.130292,-0.181818)">
        <rect x="4" y="4" width="89.098" height="88" style="fill:rgb(128,128,128);"/>
    </g>
    <g transform="matrix(2.19911,0,0,2.1736,-6.2925,-37.9856)">
        <g transform="matrix(34.9012,0,0,34.9012,46.8998,49)">
        </g>
        <text x="6px" y="49px" style="font-family:'ClassicConsole', 'Classic Console', monospace;font-size:34.901px;">2FA</text>
    </g>
    <g transform="matrix(1,0,0,1,4,-4)">
        <path d="M40,80L52,80L52,84L48,84L48,92L44,92L44,84L40,84L40,80Z"/>
        <path d="M40,80L52,80L52,84L48,84L48,92L44,92L44,84L40,84L40,80ZM41,81L41,83L45,83L45,91L47,91L47,83L51,83C51,83 51,81 51,81L41,81Z"/>
    </g>
    <g transform="matrix(1,0,0,1,8,-4)">
        <path d="M4,100L4,96L12,96L12,100"/>
    </g>
    <g transform="matrix(1,0,0,1,76,-4)">
        <path d="M4,100L4,96L12,96L12,100"/>
    </g>
    <g transform="matrix(1.5,0,0,1,38,-16)">
        <path d="M4,100L4,96L12,96L12,100"/>
    </g>
    <g transform="matrix(0.5,0,0,1,46,-8)">
        <path d="M4,100L4,96L12,96L12,100"/>
    </g>
    <path d="M-0,0L100,-0L100,100L0,100L-0,0ZM4,96L96,96L96,4L4,4L4,96Z"/>
    <rect x="8" y="20" width="4" height="4" style="fill:rgb(66,66,66);"/>
    <g transform="matrix(1,0,0,1,4,-4)">
        <rect x="8" y="20" width="4" height="4" style="fill:rgb(66,66,66);"/>
    </g>
    <g transform="matrix(1,0,0,1,76,-12)">
        <rect x="8" y="20" width="4" height="4" style="fill:rgb(66,66,66);"/>
    </g>
    <g transform="matrix(1,0,0,1,28,0)">
        <rect x="8" y="20" width="4" height="4" style="fill:rgb(66,66,66);"/>
    </g>
    <g transform="matrix(1,0,0,1,60,68)">
        <rect x="8" y="20" width="4" height="4" style="fill:rgb(66,66,66);"/>
    </g>
    <g transform="matrix(1,0,0,1,60,64)">
        <rect x="8" y="20" width="4" height="4" style="fill:rgb(66,66,66);"/>
    </g>
    <g transform="matrix(1,0,0,1,72,-12)">
        <rect x="8" y="20" width="4" height="4" style="fill:rgb(66,66,66);"/>
    </g>
    <g transform="matrix(1,0,0,1,76,4)">
        <rect x="8" y="20" width="4" height="4" style="fill:rgb(66,66,66);"/>
    </g>
    <g transform="matrix(1,0,0,1,80,4)">
        <rect x="8" y="20" width="4" height="4" style="fill:rgb(66,66,66);"/>
    </g>
    <g transform="matrix(1,0,0,1,80,0)">
        <rect x="8" y="20" width="4" height="4" style="fill:rgb(66,66,66);"/>
    </g>
    <g transform="matrix(1,0,0,1,20,-4)">
        <rect x="8" y="20" width="4" height="4" style="fill:rgb(66,66,66);"/>
    </g>
    <g transform="matrix(1,0,0,1,24,0)">
        <rect x="8" y="20" width="4" height="4" style="fill:rgb(66,66,66);"/>
    </g>
    <g transform="matrix(1,0,0,1,12,-8)">
        <rect x="8" y="20" width="4" height="4" style="fill:rgb(156,156,156);"/>
    </g>
    <g transform="matrix(1,0,0,1,80,64)">
        <rect x="8" y="20" width="4" height="4" style="fill:rgb(156,156,156);"/>
    </g>
    <g transform="matrix(1,0,0,1,8,-12)">
        <rect x="8" y="20" width="4" height="4" style="fill:rgb(156,156,156);"/>
    </g>
    <g transform="matrix(1,0,0,1,76,60)">
        <rect x="8" y="20" width="4" height="4" style="fill:rgb(156,156,156);"/>
    </g>
    <g transform="matrix(1,0,0,1,20,60)">
        <rect x="8" y="20" width="4" height="4" style="fill:rgb(156,156,156);"/>
    </g>
    <g transform="matrix(1,0,0,1,24,56)">
        <rect x="8" y="20" width="4" height="4" style="fill:rgb(156,156,156);"/>
    </g>
    <g transform="matrix(1,0,0,1,28,52)">
        <rect x="8" y="20" width="4" height="4" style="fill:rgb(156,156,156);"/>
    </g>
</svg>
