<?xml version="1.0" encoding="UTF-8" standalone="no"?>
<!DOCTYPE svg PUBLIC "-//W3C//DTD SVG 1.1//EN" "http://www.w3.org/Graphics/SVG/1.1/DTD/svg11.dtd">
<svg width="100%" height="100%" viewBox="0 0 752 259" version="1.1" xmlns="http://www.w3.org/2000/svg" xmlns:xlink="http://www.w3.org/1999/xlink" xml:space="preserve" xmlns:serif="http://www.serif.com/" style="fill-rule:evenodd;clip-rule:evenodd;stroke-miterlimit:10;">
    <g transform="matrix(0.360471,0,0,1,376.007,-1.84035)">
        <g transform="matrix(1.3907,0,0,1,0,2.8335)">
            <path d="M0,0L750,0" style="fill:none;fill-rule:nonzero;stroke:url(#_Linear1);stroke-width:0.25px;"/>
        </g>
        <g transform="matrix(1.3907,0,0,1,0,12)">
            <path d="M0,0L750,0" style="fill:none;fill-rule:nonzero;stroke:url(#_Linear2);stroke-width:0.25px;"/>
        </g>
        <g transform="matrix(1.3907,0,0,1,0,21.1665)">
            <path d="M0,0L750,0" style="fill:none;fill-rule:nonzero;stroke:url(#_Linear3);stroke-width:0.25px;"/>
        </g>
        <g transform="matrix(1.3907,0,0,1,0,30.3335)">
            <path d="M0,0L750,0" style="fill:none;fill-rule:nonzero;stroke:url(#_Linear4);stroke-width:0.25px;"/>
        </g>
        <g transform="matrix(1.3907,0,0,1,0,39.5)">
            <path d="M0,0L750,0" style="fill:none;fill-rule:nonzero;stroke:url(#_Linear5);stroke-width:0.25px;"/>
        </g>
        <g transform="matrix(1.3907,0,0,1,0,48.6665)">
            <path d="M0,0L750,0" style="fill:none;fill-rule:nonzero;stroke:url(#_Linear6);stroke-width:0.25px;"/>
        </g>
        <g transform="matrix(1.3907,0,0,1,0,57.8335)">
            <path d="M0,0L750,0" style="fill:none;fill-rule:nonzero;stroke:url(#_Linear7);stroke-width:0.25px;"/>
        </g>
        <g transform="matrix(1.3907,0,0,1,0,67)">
            <path d="M0,0L750,0" style="fill:none;fill-rule:nonzero;stroke:url(#_Linear8);stroke-width:0.25px;"/>
        </g>
        <g transform="matrix(1.3907,0,0,1,0,76.1665)">
            <path d="M0,0L750,0" style="fill:none;fill-rule:nonzero;stroke:url(#_Linear9);stroke-width:0.25px;"/>
        </g>
        <g transform="matrix(1.3907,0,0,1,0,85.3335)">
            <path d="M0,0L750,0" style="fill:none;fill-rule:nonzero;stroke:url(#_Linear10);stroke-width:0.25px;"/>
        </g>
        <g transform="matrix(1.3907,0,0,1,0,94.5)">
            <path d="M0,0L750,0" style="fill:none;fill-rule:nonzero;stroke:url(#_Linear11);stroke-width:0.25px;"/>
        </g>
        <g transform="matrix(1.3907,0,0,1,0,103.667)">
            <path d="M0,0L750,0" style="fill:none;fill-rule:nonzero;stroke:url(#_Linear12);stroke-width:0.25px;"/>
        </g>
        <g transform="matrix(1.3907,0,0,1,0,112.834)">
            <path d="M0,0L750,0" style="fill:none;fill-rule:nonzero;stroke:url(#_Linear13);stroke-width:0.25px;"/>
        </g>
        <g transform="matrix(1.3907,0,0,1,0,122)">
            <path d="M0,0L750,0" style="fill:none;fill-rule:nonzero;stroke:url(#_Linear14);stroke-width:0.25px;"/>
        </g>
        <g transform="matrix(1.3907,0,0,1,0,131.167)">
            <path d="M0,0L750,0" style="fill:none;fill-rule:nonzero;stroke:url(#_Linear15);stroke-width:0.25px;"/>
        </g>
        <g transform="matrix(1.3907,0,0,1,0,140.334)">
            <path d="M0,0L750,0" style="fill:none;fill-rule:nonzero;stroke:url(#_Linear16);stroke-width:0.25px;"/>
        </g>
        <g transform="matrix(1.3907,0,0,1,0,149.5)">
            <path d="M0,0L750,0" style="fill:none;fill-rule:nonzero;stroke:url(#_Linear17);stroke-width:0.25px;"/>
        </g>
        <g transform="matrix(1.3907,0,0,1,0,158.667)">
            <path d="M0,0L750,0" style="fill:none;fill-rule:nonzero;stroke:url(#_Linear18);stroke-width:0.25px;"/>
        </g>
        <g transform="matrix(1.3907,0,0,1,0,167.834)">
            <path d="M0,0L750,0" style="fill:none;fill-rule:nonzero;stroke:url(#_Linear19);stroke-width:0.25px;"/>
        </g>
        <g transform="matrix(1.3907,0,0,1,0,177)">
            <path d="M0,0L750,0" style="fill:none;fill-rule:nonzero;stroke:url(#_Linear20);stroke-width:0.25px;"/>
        </g>
        <g transform="matrix(1.3907,0,0,1,0,186.167)">
            <path d="M0,0L750,0" style="fill:none;fill-rule:nonzero;stroke:url(#_Linear21);stroke-width:0.25px;"/>
        </g>
        <g transform="matrix(1.3907,0,0,1,0,195.334)">
            <path d="M0,0L750,0" style="fill:none;fill-rule:nonzero;stroke:url(#_Linear22);stroke-width:0.25px;"/>
        </g>
        <g transform="matrix(1.3907,0,0,1,0,204.5)">
            <path d="M0,0L750,0" style="fill:none;fill-rule:nonzero;stroke:url(#_Linear23);stroke-width:0.25px;"/>
        </g>
        <g transform="matrix(1.3907,0,0,1,0,213.667)">
            <path d="M0,0L750,0" style="fill:none;fill-rule:nonzero;stroke:url(#_Linear24);stroke-width:0.25px;"/>
        </g>
        <g transform="matrix(1.3907,0,0,1,0,222.834)">
            <path d="M0,0L750,0" style="fill:none;fill-rule:nonzero;stroke:url(#_Linear25);stroke-width:0.25px;"/>
        </g>
        <g transform="matrix(1.3907,0,0,1,0,232)">
            <path d="M0,0L750,0" style="fill:none;fill-rule:nonzero;stroke:url(#_Linear26);stroke-width:0.25px;"/>
        </g>
        <g transform="matrix(1.3907,0,0,1,0,241.167)">
            <path d="M0,0L750,0" style="fill:none;fill-rule:nonzero;stroke:url(#_Linear27);stroke-width:0.25px;"/>
        </g>
        <g transform="matrix(1.3907,0,0,1,0,250.334)">
            <path d="M0,0L750,0" style="fill:none;fill-rule:nonzero;stroke:url(#_Linear28);stroke-width:0.25px;"/>
        </g>
        <g transform="matrix(1.3907,0,0,1,0,259.5)">
            <path d="M0,0L750,0" style="fill:none;fill-rule:nonzero;stroke:url(#_Linear29);stroke-width:0.25px;"/>
        </g>
    </g>
    <g transform="matrix(-0.363379,0,0,1,379.007,-1.84035)">
        <g transform="matrix(1.3907,0,0,1,0,2.8335)">
            <path d="M0,0L750,0" style="fill:none;fill-rule:nonzero;stroke:url(#_Linear30);stroke-width:0.25px;"/>
        </g>
        <g transform="matrix(1.3907,0,0,1,0,12)">
            <path d="M0,0L750,0" style="fill:none;fill-rule:nonzero;stroke:url(#_Linear31);stroke-width:0.25px;"/>
        </g>
        <g transform="matrix(1.3907,0,0,1,0,21.1665)">
            <path d="M0,0L750,0" style="fill:none;fill-rule:nonzero;stroke:url(#_Linear32);stroke-width:0.25px;"/>
        </g>
        <g transform="matrix(1.3907,0,0,1,0,30.3335)">
            <path d="M0,0L750,0" style="fill:none;fill-rule:nonzero;stroke:url(#_Linear33);stroke-width:0.25px;"/>
        </g>
        <g transform="matrix(1.3907,0,0,1,0,39.5)">
            <path d="M0,0L750,0" style="fill:none;fill-rule:nonzero;stroke:url(#_Linear34);stroke-width:0.25px;"/>
        </g>
        <g transform="matrix(1.3907,0,0,1,0,48.6665)">
            <path d="M0,0L750,0" style="fill:none;fill-rule:nonzero;stroke:url(#_Linear35);stroke-width:0.25px;"/>
        </g>
        <g transform="matrix(1.3907,0,0,1,0,57.8335)">
            <path d="M0,0L750,0" style="fill:none;fill-rule:nonzero;stroke:url(#_Linear36);stroke-width:0.25px;"/>
        </g>
        <g transform="matrix(1.3907,0,0,1,0,67)">
            <path d="M0,0L750,0" style="fill:none;fill-rule:nonzero;stroke:url(#_Linear37);stroke-width:0.25px;"/>
        </g>
        <g transform="matrix(1.3907,0,0,1,0,76.1665)">
            <path d="M0,0L750,0" style="fill:none;fill-rule:nonzero;stroke:url(#_Linear38);stroke-width:0.25px;"/>
        </g>
        <g transform="matrix(1.3907,0,0,1,0,85.3335)">
            <path d="M0,0L750,0" style="fill:none;fill-rule:nonzero;stroke:url(#_Linear39);stroke-width:0.25px;"/>
        </g>
        <g transform="matrix(1.3907,0,0,1,0,94.5)">
            <path d="M0,0L750,0" style="fill:none;fill-rule:nonzero;stroke:url(#_Linear40);stroke-width:0.25px;"/>
        </g>
        <g transform="matrix(1.3907,0,0,1,0,103.667)">
            <path d="M0,0L750,0" style="fill:none;fill-rule:nonzero;stroke:url(#_Linear41);stroke-width:0.25px;"/>
        </g>
        <g transform="matrix(1.3907,0,0,1,0,112.834)">
            <path d="M0,0L750,0" style="fill:none;fill-rule:nonzero;stroke:url(#_Linear42);stroke-width:0.25px;"/>
        </g>
        <g transform="matrix(1.3907,0,0,1,0,122)">
            <path d="M0,0L750,0" style="fill:none;fill-rule:nonzero;stroke:url(#_Linear43);stroke-width:0.25px;"/>
        </g>
        <g transform="matrix(1.3907,0,0,1,0,131.167)">
            <path d="M0,0L750,0" style="fill:none;fill-rule:nonzero;stroke:url(#_Linear44);stroke-width:0.25px;"/>
        </g>
        <g transform="matrix(1.3907,0,0,1,0,140.334)">
            <path d="M0,0L750,0" style="fill:none;fill-rule:nonzero;stroke:url(#_Linear45);stroke-width:0.25px;"/>
        </g>
        <g transform="matrix(1.3907,0,0,1,0,149.5)">
            <path d="M0,0L750,0" style="fill:none;fill-rule:nonzero;stroke:url(#_Linear46);stroke-width:0.25px;"/>
        </g>
        <g transform="matrix(1.3907,0,0,1,0,158.667)">
            <path d="M0,0L750,0" style="fill:none;fill-rule:nonzero;stroke:url(#_Linear47);stroke-width:0.25px;"/>
        </g>
        <g transform="matrix(1.3907,0,0,1,0,167.834)">
            <path d="M0,0L750,0" style="fill:none;fill-rule:nonzero;stroke:url(#_Linear48);stroke-width:0.25px;"/>
        </g>
        <g transform="matrix(1.3907,0,0,1,0,177)">
            <path d="M0,0L750,0" style="fill:none;fill-rule:nonzero;stroke:url(#_Linear49);stroke-width:0.25px;"/>
        </g>
        <g transform="matrix(1.3907,0,0,1,0,186.167)">
            <path d="M0,0L750,0" style="fill:none;fill-rule:nonzero;stroke:url(#_Linear50);stroke-width:0.25px;"/>
        </g>
        <g transform="matrix(1.3907,0,0,1,0,195.334)">
            <path d="M0,0L750,0" style="fill:none;fill-rule:nonzero;stroke:url(#_Linear51);stroke-width:0.25px;"/>
        </g>
        <g transform="matrix(1.3907,0,0,1,0,204.5)">
            <path d="M0,0L750,0" style="fill:none;fill-rule:nonzero;stroke:url(#_Linear52);stroke-width:0.25px;"/>
        </g>
        <g transform="matrix(1.3907,0,0,1,0,213.667)">
            <path d="M0,0L750,0" style="fill:none;fill-rule:nonzero;stroke:url(#_Linear53);stroke-width:0.25px;"/>
        </g>
        <g transform="matrix(1.3907,0,0,1,0,222.834)">
            <path d="M0,0L750,0" style="fill:none;fill-rule:nonzero;stroke:url(#_Linear54);stroke-width:0.25px;"/>
        </g>
        <g transform="matrix(1.3907,0,0,1,0,232)">
            <path d="M0,0L750,0" style="fill:none;fill-rule:nonzero;stroke:url(#_Linear55);stroke-width:0.25px;"/>
        </g>
        <g transform="matrix(1.3907,0,0,1,0,241.167)">
            <path d="M0,0L750,0" style="fill:none;fill-rule:nonzero;stroke:url(#_Linear56);stroke-width:0.25px;"/>
        </g>
        <g transform="matrix(1.3907,0,0,1,0,250.334)">
            <path d="M0,0L750,0" style="fill:none;fill-rule:nonzero;stroke:url(#_Linear57);stroke-width:0.25px;"/>
        </g>
        <g transform="matrix(1.3907,0,0,1,0,259.5)">
            <path d="M0,0L750,0" style="fill:none;fill-rule:nonzero;stroke:url(#_Linear58);stroke-width:0.25px;"/>
        </g>
    </g>
    <defs>
        <linearGradient id="_Linear1" x1="0" y1="0" x2="1" y2="0" gradientUnits="userSpaceOnUse" gradientTransform="matrix(750,0,0,750,-2.1e-05,-0.0005)"><stop offset="0" style="stop-color:rgb(18,8,76);stop-opacity:1"/><stop offset="0.53" style="stop-color:rgb(238,42,123);stop-opacity:1"/><stop offset="1" style="stop-color:rgb(251,176,64);stop-opacity:1"/></linearGradient>
        <linearGradient id="_Linear2" x1="0" y1="0" x2="1" y2="0" gradientUnits="userSpaceOnUse" gradientTransform="matrix(750,0,0,750,-2.1e-05,0)"><stop offset="0" style="stop-color:rgb(18,8,76);stop-opacity:1"/><stop offset="0.53" style="stop-color:rgb(238,42,123);stop-opacity:1"/><stop offset="1" style="stop-color:rgb(251,176,64);stop-opacity:1"/></linearGradient>
        <linearGradient id="_Linear3" x1="0" y1="0" x2="1" y2="0" gradientUnits="userSpaceOnUse" gradientTransform="matrix(750,0,0,750,-2.1e-05,0.0005)"><stop offset="0" style="stop-color:rgb(18,8,76);stop-opacity:1"/><stop offset="0.53" style="stop-color:rgb(238,42,123);stop-opacity:1"/><stop offset="1" style="stop-color:rgb(251,176,64);stop-opacity:1"/></linearGradient>
        <linearGradient id="_Linear4" x1="0" y1="0" x2="1" y2="0" gradientUnits="userSpaceOnUse" gradientTransform="matrix(750,0,0,750,-2.1e-05,-0.0005)"><stop offset="0" style="stop-color:rgb(18,8,76);stop-opacity:1"/><stop offset="0.53" style="stop-color:rgb(238,42,123);stop-opacity:1"/><stop offset="1" style="stop-color:rgb(251,176,64);stop-opacity:1"/></linearGradient>
        <linearGradient id="_Linear5" x1="0" y1="0" x2="1" y2="0" gradientUnits="userSpaceOnUse" gradientTransform="matrix(750,0,0,750,-2.1e-05,0)"><stop offset="0" style="stop-color:rgb(18,8,76);stop-opacity:1"/><stop offset="0.53" style="stop-color:rgb(238,42,123);stop-opacity:1"/><stop offset="1" style="stop-color:rgb(251,176,64);stop-opacity:1"/></linearGradient>
        <linearGradient id="_Linear6" x1="0" y1="0" x2="1" y2="0" gradientUnits="userSpaceOnUse" gradientTransform="matrix(750,0,0,750,-2.1e-05,0.0005)"><stop offset="0" style="stop-color:rgb(18,8,76);stop-opacity:1"/><stop offset="0.53" style="stop-color:rgb(238,42,123);stop-opacity:1"/><stop offset="1" style="stop-color:rgb(251,176,64);stop-opacity:1"/></linearGradient>
        <linearGradient id="_Linear7" x1="0" y1="0" x2="1" y2="0" gradientUnits="userSpaceOnUse" gradientTransform="matrix(750,0,0,750,-2.1e-05,-0.0005)"><stop offset="0" style="stop-color:rgb(18,8,76);stop-opacity:1"/><stop offset="0.53" style="stop-color:rgb(238,42,123);stop-opacity:1"/><stop offset="1" style="stop-color:rgb(251,176,64);stop-opacity:1"/></linearGradient>
        <linearGradient id="_Linear8" x1="0" y1="0" x2="1" y2="0" gradientUnits="userSpaceOnUse" gradientTransform="matrix(750,0,0,750,-2.1e-05,0)"><stop offset="0" style="stop-color:rgb(18,8,76);stop-opacity:1"/><stop offset="0.53" style="stop-color:rgb(238,42,123);stop-opacity:1"/><stop offset="1" style="stop-color:rgb(251,176,64);stop-opacity:1"/></linearGradient>
        <linearGradient id="_Linear9" x1="0" y1="0" x2="1" y2="0" gradientUnits="userSpaceOnUse" gradientTransform="matrix(750,0,0,750,-2.1e-05,0.0005)"><stop offset="0" style="stop-color:rgb(18,8,76);stop-opacity:1"/><stop offset="0.53" style="stop-color:rgb(238,42,123);stop-opacity:1"/><stop offset="1" style="stop-color:rgb(251,176,64);stop-opacity:1"/></linearGradient>
        <linearGradient id="_Linear10" x1="0" y1="0" x2="1" y2="0" gradientUnits="userSpaceOnUse" gradientTransform="matrix(750,0,0,750,-2.1e-05,-0.0005)"><stop offset="0" style="stop-color:rgb(18,8,76);stop-opacity:1"/><stop offset="0.53" style="stop-color:rgb(238,42,123);stop-opacity:1"/><stop offset="1" style="stop-color:rgb(251,176,64);stop-opacity:1"/></linearGradient>
        <linearGradient id="_Linear11" x1="0" y1="0" x2="1" y2="0" gradientUnits="userSpaceOnUse" gradientTransform="matrix(750,0,0,750,-2.1e-05,0)"><stop offset="0" style="stop-color:rgb(18,8,76);stop-opacity:1"/><stop offset="0.53" style="stop-color:rgb(238,42,123);stop-opacity:1"/><stop offset="1" style="stop-color:rgb(251,176,64);stop-opacity:1"/></linearGradient>
        <linearGradient id="_Linear12" x1="0" y1="0" x2="1" y2="0" gradientUnits="userSpaceOnUse" gradientTransform="matrix(750,0,0,750,-2.1e-05,0.0005)"><stop offset="0" style="stop-color:rgb(18,8,76);stop-opacity:1"/><stop offset="0.53" style="stop-color:rgb(238,42,123);stop-opacity:1"/><stop offset="1" style="stop-color:rgb(251,176,64);stop-opacity:1"/></linearGradient>
        <linearGradient id="_Linear13" x1="0" y1="0" x2="1" y2="0" gradientUnits="userSpaceOnUse" gradientTransform="matrix(750,0,0,750,-2.1e-05,-0.0005)"><stop offset="0" style="stop-color:rgb(18,8,76);stop-opacity:1"/><stop offset="0.53" style="stop-color:rgb(238,42,123);stop-opacity:1"/><stop offset="1" style="stop-color:rgb(251,176,64);stop-opacity:1"/></linearGradient>
        <linearGradient id="_Linear14" x1="0" y1="0" x2="1" y2="0" gradientUnits="userSpaceOnUse" gradientTransform="matrix(750,0,0,750,-2.1e-05,0)"><stop offset="0" style="stop-color:rgb(18,8,76);stop-opacity:1"/><stop offset="0.53" style="stop-color:rgb(238,42,123);stop-opacity:1"/><stop offset="1" style="stop-color:rgb(251,176,64);stop-opacity:1"/></linearGradient>
        <linearGradient id="_Linear15" x1="0" y1="0" x2="1" y2="0" gradientUnits="userSpaceOnUse" gradientTransform="matrix(750,0,0,750,-2.1e-05,0.0005)"><stop offset="0" style="stop-color:rgb(18,8,76);stop-opacity:1"/><stop offset="0.53" style="stop-color:rgb(238,42,123);stop-opacity:1"/><stop offset="1" style="stop-color:rgb(251,176,64);stop-opacity:1"/></linearGradient>
        <linearGradient id="_Linear16" x1="0" y1="0" x2="1" y2="0" gradientUnits="userSpaceOnUse" gradientTransform="matrix(750,0,0,750,-2.1e-05,-0.0005)"><stop offset="0" style="stop-color:rgb(18,8,76);stop-opacity:1"/><stop offset="0.53" style="stop-color:rgb(238,42,123);stop-opacity:1"/><stop offset="1" style="stop-color:rgb(251,176,64);stop-opacity:1"/></linearGradient>
        <linearGradient id="_Linear17" x1="0" y1="0" x2="1" y2="0" gradientUnits="userSpaceOnUse" gradientTransform="matrix(750,0,0,750,-2.1e-05,0)"><stop offset="0" style="stop-color:rgb(18,8,76);stop-opacity:1"/><stop offset="0.53" style="stop-color:rgb(238,42,123);stop-opacity:1"/><stop offset="1" style="stop-color:rgb(251,176,64);stop-opacity:1"/></linearGradient>
        <linearGradient id="_Linear18" x1="0" y1="0" x2="1" y2="0" gradientUnits="userSpaceOnUse" gradientTransform="matrix(750,0,0,750,-2.1e-05,0.0005)"><stop offset="0" style="stop-color:rgb(18,8,76);stop-opacity:1"/><stop offset="0.53" style="stop-color:rgb(238,42,123);stop-opacity:1"/><stop offset="1" style="stop-color:rgb(251,176,64);stop-opacity:1"/></linearGradient>
        <linearGradient id="_Linear19" x1="0" y1="0" x2="1" y2="0" gradientUnits="userSpaceOnUse" gradientTransform="matrix(750,0,0,750,-2.1e-05,-0.0005)"><stop offset="0" style="stop-color:rgb(18,8,76);stop-opacity:1"/><stop offset="0.53" style="stop-color:rgb(238,42,123);stop-opacity:1"/><stop offset="1" style="stop-color:rgb(251,176,64);stop-opacity:1"/></linearGradient>
        <linearGradient id="_Linear20" x1="0" y1="0" x2="1" y2="0" gradientUnits="userSpaceOnUse" gradientTransform="matrix(750,0,0,750,-2.1e-05,0)"><stop offset="0" style="stop-color:rgb(18,8,76);stop-opacity:1"/><stop offset="0.53" style="stop-color:rgb(238,42,123);stop-opacity:1"/><stop offset="1" style="stop-color:rgb(251,176,64);stop-opacity:1"/></linearGradient>
        <linearGradient id="_Linear21" x1="0" y1="0" x2="1" y2="0" gradientUnits="userSpaceOnUse" gradientTransform="matrix(750,0,0,750,-2.1e-05,0.0005)"><stop offset="0" style="stop-color:rgb(18,8,76);stop-opacity:1"/><stop offset="0.53" style="stop-color:rgb(238,42,123);stop-opacity:1"/><stop offset="1" style="stop-color:rgb(251,176,64);stop-opacity:1"/></linearGradient>
        <linearGradient id="_Linear22" x1="0" y1="0" x2="1" y2="0" gradientUnits="userSpaceOnUse" gradientTransform="matrix(750,0,0,750,-2.1e-05,-0.0005)"><stop offset="0" style="stop-color:rgb(18,8,76);stop-opacity:1"/><stop offset="0.53" style="stop-color:rgb(238,42,123);stop-opacity:1"/><stop offset="1" style="stop-color:rgb(251,176,64);stop-opacity:1"/></linearGradient>
        <linearGradient id="_Linear23" x1="0" y1="0" x2="1" y2="0" gradientUnits="userSpaceOnUse" gradientTransform="matrix(750,0,0,750,-2.1e-05,0)"><stop offset="0" style="stop-color:rgb(18,8,76);stop-opacity:1"/><stop offset="0.53" style="stop-color:rgb(238,42,123);stop-opacity:1"/><stop offset="1" style="stop-color:rgb(251,176,64);stop-opacity:1"/></linearGradient>
        <linearGradient id="_Linear24" x1="0" y1="0" x2="1" y2="0" gradientUnits="userSpaceOnUse" gradientTransform="matrix(750,0,0,750,-2.1e-05,0.0005)"><stop offset="0" style="stop-color:rgb(18,8,76);stop-opacity:1"/><stop offset="0.53" style="stop-color:rgb(238,42,123);stop-opacity:1"/><stop offset="1" style="stop-color:rgb(251,176,64);stop-opacity:1"/></linearGradient>
        <linearGradient id="_Linear25" x1="0" y1="0" x2="1" y2="0" gradientUnits="userSpaceOnUse" gradientTransform="matrix(750,0,0,750,-2.1e-05,-0.0005)"><stop offset="0" style="stop-color:rgb(18,8,76);stop-opacity:1"/><stop offset="0.53" style="stop-color:rgb(238,42,123);stop-opacity:1"/><stop offset="1" style="stop-color:rgb(251,176,64);stop-opacity:1"/></linearGradient>
        <linearGradient id="_Linear26" x1="0" y1="0" x2="1" y2="0" gradientUnits="userSpaceOnUse" gradientTransform="matrix(750,0,0,750,-2.1e-05,0)"><stop offset="0" style="stop-color:rgb(18,8,76);stop-opacity:1"/><stop offset="0.53" style="stop-color:rgb(238,42,123);stop-opacity:1"/><stop offset="1" style="stop-color:rgb(251,176,64);stop-opacity:1"/></linearGradient>
        <linearGradient id="_Linear27" x1="0" y1="0" x2="1" y2="0" gradientUnits="userSpaceOnUse" gradientTransform="matrix(750,0,0,750,-2.1e-05,0.0005)"><stop offset="0" style="stop-color:rgb(18,8,76);stop-opacity:1"/><stop offset="0.53" style="stop-color:rgb(238,42,123);stop-opacity:1"/><stop offset="1" style="stop-color:rgb(251,176,64);stop-opacity:1"/></linearGradient>
        <linearGradient id="_Linear28" x1="0" y1="0" x2="1" y2="0" gradientUnits="userSpaceOnUse" gradientTransform="matrix(750,0,0,750,-2.1e-05,-0.0005)"><stop offset="0" style="stop-color:rgb(18,8,76);stop-opacity:1"/><stop offset="0.53" style="stop-color:rgb(238,42,123);stop-opacity:1"/><stop offset="1" style="stop-color:rgb(251,176,64);stop-opacity:1"/></linearGradient>
        <linearGradient id="_Linear29" x1="0" y1="0" x2="1" y2="0" gradientUnits="userSpaceOnUse" gradientTransform="matrix(750,0,0,750,-2.1e-05,0)"><stop offset="0" style="stop-color:rgb(18,8,76);stop-opacity:1"/><stop offset="0.53" style="stop-color:rgb(238,42,123);stop-opacity:1"/><stop offset="1" style="stop-color:rgb(251,176,64);stop-opacity:1"/></linearGradient>
        <linearGradient id="_Linear30" x1="0" y1="0" x2="1" y2="0" gradientUnits="userSpaceOnUse" gradientTransform="matrix(750,0,0,750,-2.1e-05,-0.0005)"><stop offset="0" style="stop-color:rgb(18,8,76);stop-opacity:1"/><stop offset="0.53" style="stop-color:rgb(238,42,123);stop-opacity:1"/><stop offset="1" style="stop-color:rgb(251,176,64);stop-opacity:1"/></linearGradient>
        <linearGradient id="_Linear31" x1="0" y1="0" x2="1" y2="0" gradientUnits="userSpaceOnUse" gradientTransform="matrix(750,0,0,750,-2.1e-05,0)"><stop offset="0" style="stop-color:rgb(18,8,76);stop-opacity:1"/><stop offset="0.53" style="stop-color:rgb(238,42,123);stop-opacity:1"/><stop offset="1" style="stop-color:rgb(251,176,64);stop-opacity:1"/></linearGradient>
        <linearGradient id="_Linear32" x1="0" y1="0" x2="1" y2="0" gradientUnits="userSpaceOnUse" gradientTransform="matrix(750,0,0,750,-2.1e-05,0.0005)"><stop offset="0" style="stop-color:rgb(18,8,76);stop-opacity:1"/><stop offset="0.53" style="stop-color:rgb(238,42,123);stop-opacity:1"/><stop offset="1" style="stop-color:rgb(251,176,64);stop-opacity:1"/></linearGradient>
        <linearGradient id="_Linear33" x1="0" y1="0" x2="1" y2="0" gradientUnits="userSpaceOnUse" gradientTransform="matrix(750,0,0,750,-2.1e-05,-0.0005)"><stop offset="0" style="stop-color:rgb(18,8,76);stop-opacity:1"/><stop offset="0.53" style="stop-color:rgb(238,42,123);stop-opacity:1"/><stop offset="1" style="stop-color:rgb(251,176,64);stop-opacity:1"/></linearGradient>
        <linearGradient id="_Linear34" x1="0" y1="0" x2="1" y2="0" gradientUnits="userSpaceOnUse" gradientTransform="matrix(750,0,0,750,-2.1e-05,0)"><stop offset="0" style="stop-color:rgb(18,8,76);stop-opacity:1"/><stop offset="0.53" style="stop-color:rgb(238,42,123);stop-opacity:1"/><stop offset="1" style="stop-color:rgb(251,176,64);stop-opacity:1"/></linearGradient>
        <linearGradient id="_Linear35" x1="0" y1="0" x2="1" y2="0" gradientUnits="userSpaceOnUse" gradientTransform="matrix(750,0,0,750,-2.1e-05,0.0005)"><stop offset="0" style="stop-color:rgb(18,8,76);stop-opacity:1"/><stop offset="0.53" style="stop-color:rgb(238,42,123);stop-opacity:1"/><stop offset="1" style="stop-color:rgb(251,176,64);stop-opacity:1"/></linearGradient>
        <linearGradient id="_Linear36" x1="0" y1="0" x2="1" y2="0" gradientUnits="userSpaceOnUse" gradientTransform="matrix(750,0,0,750,-2.1e-05,-0.0005)"><stop offset="0" style="stop-color:rgb(18,8,76);stop-opacity:1"/><stop offset="0.53" style="stop-color:rgb(238,42,123);stop-opacity:1"/><stop offset="1" style="stop-color:rgb(251,176,64);stop-opacity:1"/></linearGradient>
        <linearGradient id="_Linear37" x1="0" y1="0" x2="1" y2="0" gradientUnits="userSpaceOnUse" gradientTransform="matrix(750,0,0,750,-2.1e-05,0)"><stop offset="0" style="stop-color:rgb(18,8,76);stop-opacity:1"/><stop offset="0.53" style="stop-color:rgb(238,42,123);stop-opacity:1"/><stop offset="1" style="stop-color:rgb(251,176,64);stop-opacity:1"/></linearGradient>
        <linearGradient id="_Linear38" x1="0" y1="0" x2="1" y2="0" gradientUnits="userSpaceOnUse" gradientTransform="matrix(750,0,0,750,-2.1e-05,0.0005)"><stop offset="0" style="stop-color:rgb(18,8,76);stop-opacity:1"/><stop offset="0.53" style="stop-color:rgb(238,42,123);stop-opacity:1"/><stop offset="1" style="stop-color:rgb(251,176,64);stop-opacity:1"/></linearGradient>
        <linearGradient id="_Linear39" x1="0" y1="0" x2="1" y2="0" gradientUnits="userSpaceOnUse" gradientTransform="matrix(750,0,0,750,-2.1e-05,-0.0005)"><stop offset="0" style="stop-color:rgb(18,8,76);stop-opacity:1"/><stop offset="0.53" style="stop-color:rgb(238,42,123);stop-opacity:1"/><stop offset="1" style="stop-color:rgb(251,176,64);stop-opacity:1"/></linearGradient>
        <linearGradient id="_Linear40" x1="0" y1="0" x2="1" y2="0" gradientUnits="userSpaceOnUse" gradientTransform="matrix(750,0,0,750,-2.1e-05,0)"><stop offset="0" style="stop-color:rgb(18,8,76);stop-opacity:1"/><stop offset="0.53" style="stop-color:rgb(238,42,123);stop-opacity:1"/><stop offset="1" style="stop-color:rgb(251,176,64);stop-opacity:1"/></linearGradient>
        <linearGradient id="_Linear41" x1="0" y1="0" x2="1" y2="0" gradientUnits="userSpaceOnUse" gradientTransform="matrix(750,0,0,750,-2.1e-05,0.0005)"><stop offset="0" style="stop-color:rgb(18,8,76);stop-opacity:1"/><stop offset="0.53" style="stop-color:rgb(238,42,123);stop-opacity:1"/><stop offset="1" style="stop-color:rgb(251,176,64);stop-opacity:1"/></linearGradient>
        <linearGradient id="_Linear42" x1="0" y1="0" x2="1" y2="0" gradientUnits="userSpaceOnUse" gradientTransform="matrix(750,0,0,750,-2.1e-05,-0.0005)"><stop offset="0" style="stop-color:rgb(18,8,76);stop-opacity:1"/><stop offset="0.53" style="stop-color:rgb(238,42,123);stop-opacity:1"/><stop offset="1" style="stop-color:rgb(251,176,64);stop-opacity:1"/></linearGradient>
        <linearGradient id="_Linear43" x1="0" y1="0" x2="1" y2="0" gradientUnits="userSpaceOnUse" gradientTransform="matrix(750,0,0,750,-2.1e-05,0)"><stop offset="0" style="stop-color:rgb(18,8,76);stop-opacity:1"/><stop offset="0.53" style="stop-color:rgb(238,42,123);stop-opacity:1"/><stop offset="1" style="stop-color:rgb(251,176,64);stop-opacity:1"/></linearGradient>
        <linearGradient id="_Linear44" x1="0" y1="0" x2="1" y2="0" gradientUnits="userSpaceOnUse" gradientTransform="matrix(750,0,0,750,-2.1e-05,0.0005)"><stop offset="0" style="stop-color:rgb(18,8,76);stop-opacity:1"/><stop offset="0.53" style="stop-color:rgb(238,42,123);stop-opacity:1"/><stop offset="1" style="stop-color:rgb(251,176,64);stop-opacity:1"/></linearGradient>
        <linearGradient id="_Linear45" x1="0" y1="0" x2="1" y2="0" gradientUnits="userSpaceOnUse" gradientTransform="matrix(750,0,0,750,-2.1e-05,-0.0005)"><stop offset="0" style="stop-color:rgb(18,8,76);stop-opacity:1"/><stop offset="0.53" style="stop-color:rgb(238,42,123);stop-opacity:1"/><stop offset="1" style="stop-color:rgb(251,176,64);stop-opacity:1"/></linearGradient>
        <linearGradient id="_Linear46" x1="0" y1="0" x2="1" y2="0" gradientUnits="userSpaceOnUse" gradientTransform="matrix(750,0,0,750,-2.1e-05,0)"><stop offset="0" style="stop-color:rgb(18,8,76);stop-opacity:1"/><stop offset="0.53" style="stop-color:rgb(238,42,123);stop-opacity:1"/><stop offset="1" style="stop-color:rgb(251,176,64);stop-opacity:1"/></linearGradient>
        <linearGradient id="_Linear47" x1="0" y1="0" x2="1" y2="0" gradientUnits="userSpaceOnUse" gradientTransform="matrix(750,0,0,750,-2.1e-05,0.0005)"><stop offset="0" style="stop-color:rgb(18,8,76);stop-opacity:1"/><stop offset="0.53" style="stop-color:rgb(238,42,123);stop-opacity:1"/><stop offset="1" style="stop-color:rgb(251,176,64);stop-opacity:1"/></linearGradient>
        <linearGradient id="_Linear48" x1="0" y1="0" x2="1" y2="0" gradientUnits="userSpaceOnUse" gradientTransform="matrix(750,0,0,750,-2.1e-05,-0.0005)"><stop offset="0" style="stop-color:rgb(18,8,76);stop-opacity:1"/><stop offset="0.53" style="stop-color:rgb(238,42,123);stop-opacity:1"/><stop offset="1" style="stop-color:rgb(251,176,64);stop-opacity:1"/></linearGradient>
        <linearGradient id="_Linear49" x1="0" y1="0" x2="1" y2="0" gradientUnits="userSpaceOnUse" gradientTransform="matrix(750,0,0,750,-2.1e-05,0)"><stop offset="0" style="stop-color:rgb(18,8,76);stop-opacity:1"/><stop offset="0.53" style="stop-color:rgb(238,42,123);stop-opacity:1"/><stop offset="1" style="stop-color:rgb(251,176,64);stop-opacity:1"/></linearGradient>
        <linearGradient id="_Linear50" x1="0" y1="0" x2="1" y2="0" gradientUnits="userSpaceOnUse" gradientTransform="matrix(750,0,0,750,-2.1e-05,0.0005)"><stop offset="0" style="stop-color:rgb(18,8,76);stop-opacity:1"/><stop offset="0.53" style="stop-color:rgb(238,42,123);stop-opacity:1"/><stop offset="1" style="stop-color:rgb(251,176,64);stop-opacity:1"/></linearGradient>
        <linearGradient id="_Linear51" x1="0" y1="0" x2="1" y2="0" gradientUnits="userSpaceOnUse" gradientTransform="matrix(750,0,0,750,-2.1e-05,-0.0005)"><stop offset="0" style="stop-color:rgb(18,8,76);stop-opacity:1"/><stop offset="0.53" style="stop-color:rgb(238,42,123);stop-opacity:1"/><stop offset="1" style="stop-color:rgb(251,176,64);stop-opacity:1"/></linearGradient>
        <linearGradient id="_Linear52" x1="0" y1="0" x2="1" y2="0" gradientUnits="userSpaceOnUse" gradientTransform="matrix(750,0,0,750,-2.1e-05,0)"><stop offset="0" style="stop-color:rgb(18,8,76);stop-opacity:1"/><stop offset="0.53" style="stop-color:rgb(238,42,123);stop-opacity:1"/><stop offset="1" style="stop-color:rgb(251,176,64);stop-opacity:1"/></linearGradient>
        <linearGradient id="_Linear53" x1="0" y1="0" x2="1" y2="0" gradientUnits="userSpaceOnUse" gradientTransform="matrix(750,0,0,750,-2.1e-05,0.0005)"><stop offset="0" style="stop-color:rgb(18,8,76);stop-opacity:1"/><stop offset="0.53" style="stop-color:rgb(238,42,123);stop-opacity:1"/><stop offset="1" style="stop-color:rgb(251,176,64);stop-opacity:1"/></linearGradient>
        <linearGradient id="_Linear54" x1="0" y1="0" x2="1" y2="0" gradientUnits="userSpaceOnUse" gradientTransform="matrix(750,0,0,750,-2.1e-05,-0.0005)"><stop offset="0" style="stop-color:rgb(18,8,76);stop-opacity:1"/><stop offset="0.53" style="stop-color:rgb(238,42,123);stop-opacity:1"/><stop offset="1" style="stop-color:rgb(251,176,64);stop-opacity:1"/></linearGradient>
        <linearGradient id="_Linear55" x1="0" y1="0" x2="1" y2="0" gradientUnits="userSpaceOnUse" gradientTransform="matrix(750,0,0,750,-2.1e-05,0)"><stop offset="0" style="stop-color:rgb(18,8,76);stop-opacity:1"/><stop offset="0.53" style="stop-color:rgb(238,42,123);stop-opacity:1"/><stop offset="1" style="stop-color:rgb(251,176,64);stop-opacity:1"/></linearGradient>
        <linearGradient id="_Linear56" x1="0" y1="0" x2="1" y2="0" gradientUnits="userSpaceOnUse" gradientTransform="matrix(750,0,0,750,-2.1e-05,0.0005)"><stop offset="0" style="stop-color:rgb(18,8,76);stop-opacity:1"/><stop offset="0.53" style="stop-color:rgb(238,42,123);stop-opacity:1"/><stop offset="1" style="stop-color:rgb(251,176,64);stop-opacity:1"/></linearGradient>
        <linearGradient id="_Linear57" x1="0" y1="0" x2="1" y2="0" gradientUnits="userSpaceOnUse" gradientTransform="matrix(750,0,0,750,-2.1e-05,-0.0005)"><stop offset="0" style="stop-color:rgb(18,8,76);stop-opacity:1"/><stop offset="0.53" style="stop-color:rgb(238,42,123);stop-opacity:1"/><stop offset="1" style="stop-color:rgb(251,176,64);stop-opacity:1"/></linearGradient>
        <linearGradient id="_Linear58" x1="0" y1="0" x2="1" y2="0" gradientUnits="userSpaceOnUse" gradientTransform="matrix(750,0,0,750,-2.1e-05,0)"><stop offset="0" style="stop-color:rgb(18,8,76);stop-opacity:1"/><stop offset="0.53" style="stop-color:rgb(238,42,123);stop-opacity:1"/><stop offset="1" style="stop-color:rgb(251,176,64);stop-opacity:1"/></linearGradient>
    </defs>
</svg>
