<?xml version="1.0" encoding="UTF-8" standalone="no"?>
<!DOCTYPE svg PUBLIC "-//W3C//DTD SVG 1.1//EN" "http://www.w3.org/Graphics/SVG/1.1/DTD/svg11.dtd">
<svg width="100%" height="100%" viewBox="0 0 30 30" version="1.1" xmlns="http://www.w3.org/2000/svg" xmlns:xlink="http://www.w3.org/1999/xlink">
    <path d="M1,15L1,14L2,14L2,13L3,13L3,12L4,12L4,11L5,11L5,10L6,10L6,9L7,9L7,8L8,8L8,7L9,7L9,6L10,6L10,5L11,5L11,4L12,4L12,3L13,3L13,2L14,2L14,1L16,1L16,2L17,2L17,3L18,3L18,4L19,4L19,5L20,5L20,1L25,1L25,11L26,11L26,12L27,12L27,13L28,13L28,14L29,14L29,15L30,15L30,17L28,17L28,16L27,16L27,15L26,15L26,14L25,14L25,13L24,13L24,12L23,12L23,11L22,11L22,10L21,10L21,9L20,9L20,8L19,8L19,7L18,7L18,6L17,6L17,5L16,5L16,4L14,4L14,5L13,5L13,6L12,6L12,7L11,7L11,8L10,8L10,9L9,9L9,10L8,10L8,11L7,11L7,12L6,12L6,13L5,13L5,14L4,14L4,15L3,15L3,16L2,16L2,17L0,17L0,15L1,15ZM5,16L5,15L6,15L6,14L7,14L7,13L8,13L8,12L9,12L9,11L10,11L10,10L11,10L11,9L12,9L12,8L13,8L13,7L14,7L14,6L16,6L16,7L17,7L17,8L18,8L18,9L19,9L19,10L20,10L20,11L21,11L21,12L22,12L22,13L23,13L23,14L24,14L24,15L25,15L25,16L26,16L26,30L18,30L18,25L12,25L12,30L4,30L4,16L5,16Z"/>
</svg>
