<?xml version="1.0" encoding="UTF-8" standalone="no"?>
<!DOCTYPE svg PUBLIC "-//W3C//DTD SVG 1.1//EN" "http://www.w3.org/Graphics/SVG/1.1/DTD/svg11.dtd">
<svg width="100%" height="100%" viewBox="0 0 300 250" version="1.1" xmlns="http://www.w3.org/2000/svg" xmlns:xlink="http://www.w3.org/1999/xlink" xml:space="preserve" xmlns:serif="http://www.serif.com/" style="fill-rule:evenodd;clip-rule:evenodd;stroke-miterlimit:10;">
    <g transform="matrix(1.02386,0,0,1,-467.895,-0.12202)">
        <rect id="Plan-de-travail1" serif:id="Plan de travail1" x="456.991" y="0.122" width="293.009" height="250" style="fill:none;"/>
        <clipPath id="_clip1">
            <rect id="Plan-de-travail11" serif:id="Plan de travail1" x="456.991" y="0.122" width="293.009" height="250"/>
        </clipPath>
        <g clip-path="url(#_clip1)">
            <g transform="matrix(0.976696,0,0,1,-274.589,0.12202)">
                <g id="BACKGROUND-1" serif:id="BACKGROUND 1">
                    <g>
                        <clipPath id="_clip2">
                            <rect x="0" y="0" width="1043.06" height="500"/>
                        </clipPath>
                        <g clip-path="url(#_clip2)">
                            <g transform="matrix(1,0,0,1,661.764,201.054)">
                                <path d="M0,-0.001L-29.411,50.943L88.236,50.943L58.824,-0.001L29.412,-50.944L0,-0.001Z" style="fill:rgb(19,7,61);fill-rule:nonzero;"/>
                            </g>
                            <g transform="matrix(1,0,0,1,691.176,150.111)">
                                <path d="M-58.823,101.886L58.824,101.886L0,0L-29.412,50.943L-58.823,101.886Z" style="fill:none;fill-rule:nonzero;stroke:url(#_Linear3);stroke-width:1.33px;"/>
                            </g>
                            <g transform="matrix(-0.499999,0.866026,0.866026,0.499999,729.702,216.838)">
                                <path d="M-0,-0.001L40.598,-0.001L20.299,35.158L-40.598,-0L-0,-0.001Z" style="fill:rgb(19,7,61);fill-rule:nonzero;"/>
                            </g>
                            <g transform="matrix(1,0,0,1,750,181.679)">
                                <g>
                                    <clipPath id="_clip4">
                                        <rect x="-81.039" y="-49.036" width="81.039" height="138.036"/>
                                    </clipPath>
                                    <g clip-path="url(#_clip4)">
                                        <path d="M-40.598,70.318L40.598,70.318L0,0L-40.598,70.318Z" style="fill:none;fill-rule:nonzero;stroke:url(#_Linear5);stroke-width:0.92px;"/>
                                    </g>
                                </g>
                            </g>
                            <g transform="matrix(-1,0,0,1,0,250)">
                                <path d="M-750,0L0,0" style="fill:none;fill-rule:nonzero;stroke:rgb(247,46,165);stroke-width:1px;"/>
                            </g>
                            <g transform="matrix(59.4999,-51.8333,-51.8333,-59.4999,610.181,264.861)">
                                <path d="M0.878,0.691L-0.904,1.027L1.455,-1.027L1.166,-0.168L0.878,0.691Z" style="fill:url(#_Linear6);fill-rule:nonzero;"/>
                            </g>
                            <g transform="matrix(1,0,0,1,626.575,250.577)">
                                <path d="M0,-72.333L4.901,-63.766L9.501,-60.6L4.75,-56.167L32.35,-40.757L5.523,-47.935L-11.943,-32.947L13.857,-22.815L-5.4,-21.126L28.027,0L123.425,0L0,-72.333Z" style="fill:rgb(19,7,61);fill-rule:nonzero;"/>
                            </g>
                            <g>
                                <g>
                                    <clipPath id="_clip7">
                                        <path d="M631.477,186.811L636.076,189.977L631.325,194.41L658.925,209.82L632.099,202.643L614.632,217.63L640.433,227.763L621.175,229.451L654.602,250.578L750,250.578L626.576,178.244L631.477,186.811Z"/>
                                    </clipPath>
                                    <g clip-path="url(#_clip7)">
                                        <g transform="matrix(0.862759,0.505616,0.505616,-0.862759,663.807,144.922)">
                                            <path d="M-10.853,-39.985L147.31,-39.985" style="fill:none;fill-rule:nonzero;stroke:url(#_Linear8);stroke-width:1px;"/>
                                        </g>
                                        <g transform="matrix(0.862759,0.505616,0.505616,-0.862759,651.657,144.922)">
                                            <path d="M-10.853,-39.985L147.31,-39.985" style="fill:none;fill-rule:nonzero;stroke:url(#_Linear9);stroke-width:1px;"/>
                                        </g>
                                        <g transform="matrix(0.862757,0.505619,0.505619,-0.862757,639.507,144.922)">
                                            <path d="M-10.853,-39.985L147.309,-39.985" style="fill:none;fill-rule:nonzero;stroke:url(#_Linear10);stroke-width:1px;"/>
                                        </g>
                                    </g>
                                </g>
                            </g>
                        </g>
                    </g>
                </g>
            </g>
            <g id="repeat" transform="matrix(0.976696,0,0,1,-275.565,0.12202)">
                <g transform="matrix(0.666898,0,0,0.666898,875.233,157.899)">
                    <path d="M-81.463,141.098L81.463,141.098L40.731,70.549L0,0L-40.731,70.549L-81.463,141.098Z" style="fill:rgb(19,7,61);fill-rule:nonzero;stroke:url(#_Linear11);stroke-width:1.84px;"/>
                </g>
                <g transform="matrix(0.356745,0,0,0.356745,962.023,201.661)">
                    <path d="M-81.463,141.098L81.463,141.098L40.731,70.549L0,0L-40.731,70.549L-81.463,141.098Z" style="fill:rgb(19,7,61);fill-rule:nonzero;stroke:url(#_Linear12);stroke-width:1.84px;"/>
                </g>
                <g transform="matrix(0.499999,0.866026,-0.866026,0.499999,770.3,216.838)">
                    <path d="M-0,-0.001L40.598,-0.001L20.299,35.158L-40.598,-0L-0,-0.001Z" style="fill:rgb(19,7,61);fill-rule:nonzero;"/>
                </g>
                <g transform="matrix(-0.499999,0.866026,0.866026,0.499999,1029.76,216.838)">
                    <path d="M-0,-0.001L40.598,-0.001L20.299,35.158L-40.598,-0L-0,-0.001Z" style="fill:rgb(19,7,61);fill-rule:nonzero;"/>
                </g>
                <g transform="matrix(-1,0,0,1,750.027,181.679)">
                    <g>
                        <clipPath id="_clip13">
                            <rect x="-81.039" y="-49.036" width="81.039" height="138.036"/>
                        </clipPath>
                        <g clip-path="url(#_clip13)">
                            <g transform="matrix(-1,0,0,1,0,0)">
                                <path d="M-40.598,70.318L40.598,70.318L0,0L-40.598,70.318Z" style="fill:none;fill-rule:nonzero;stroke:url(#_Linear14);stroke-width:0.92px;"/>
                            </g>
                        </g>
                    </g>
                </g>
                <g transform="matrix(1,0,0,1,1050.06,181.679)">
                    <g>
                        <clipPath id="_clip15">
                            <rect x="-81.039" y="-49.036" width="81.039" height="138.036"/>
                        </clipPath>
                        <g clip-path="url(#_clip15)">
                            <path d="M-40.598,70.318L40.598,70.318L0,0L-40.598,70.318Z" style="fill:none;fill-rule:nonzero;stroke:url(#_Linear16);stroke-width:0.92px;"/>
                        </g>
                    </g>
                </g>
                <g id="montain" transform="matrix(1,0,0,1,293.062,0.12202)">
                    <g transform="matrix(1,0,0,1,532.67,214.086)">
                        <path d="M61.268,35.906L-61.268,35.906L0,0L30.635,17.953L61.268,35.906Z" style="fill:rgb(19,7,61);fill-rule:nonzero;"/>
                    </g>
                    <g transform="matrix(1,0,0,1,7.93776,-0.585055)">
                        <g>
                            <clipPath id="_clip17">
                                <path d="M522.3,218.924L520.016,220.495L522.375,222.696L508.674,230.346L521.99,226.783L530.661,234.222L517.854,239.252L527.413,240.09L510.82,250.578L586,250.578L555.367,232.624L524.732,214.671L522.3,218.924Z"/>
                            </clipPath>
                            <g clip-path="url(#_clip17)">
                                <g transform="matrix(0.862759,0.505616,0.505616,-0.862759,532.537,198.13)">
                                    <path d="M-5.388,-19.849L73.125,-19.849" style="fill:none;fill-rule:nonzero;stroke:url(#_Linear18);stroke-width:0.5px;"/>
                                </g>
                                <g transform="matrix(0.862759,0.505616,0.505616,-0.862759,526.506,198.13)">
                                    <path d="M-5.388,-19.849L73.125,-19.849" style="fill:none;fill-rule:nonzero;stroke:url(#_Linear19);stroke-width:0.5px;"/>
                                </g>
                                <g transform="matrix(0.862759,0.505616,0.505616,-0.862759,520.474,198.13)">
                                    <path d="M-5.388,-19.849L73.125,-19.849" style="fill:none;fill-rule:nonzero;stroke:url(#_Linear20);stroke-width:0.5px;"/>
                                </g>
                                <g transform="matrix(0.862759,0.505616,0.505616,-0.862759,514.443,198.13)">
                                    <path d="M-5.388,-19.849L73.125,-19.849" style="fill:none;fill-rule:nonzero;stroke:url(#_Linear21);stroke-width:0.5px;"/>
                                </g>
                                <g transform="matrix(0.862759,0.505616,0.505616,-0.862759,508.41,198.13)">
                                    <path d="M-5.388,-19.849L73.125,-19.849" style="fill:none;fill-rule:nonzero;stroke:url(#_Linear22);stroke-width:0.5px;"/>
                                </g>
                                <g transform="matrix(0.862759,0.505616,0.505616,-0.862759,502.379,198.13)">
                                    <path d="M-5.388,-19.849L73.125,-19.849" style="fill:none;fill-rule:nonzero;stroke:url(#_Linear23);stroke-width:0.5px;"/>
                                </g>
                                <g transform="matrix(0.862759,0.505616,0.505616,-0.862759,496.348,198.13)">
                                    <path d="M-5.388,-19.849L73.125,-19.849" style="fill:none;fill-rule:nonzero;stroke:url(#_Linear24);stroke-width:0.5px;"/>
                                </g>
                                <g transform="matrix(0.862759,0.505616,0.505616,-0.862759,490.316,198.13)">
                                    <path d="M-5.388,-19.849L73.125,-19.849" style="fill:none;fill-rule:nonzero;stroke:url(#_Linear25);stroke-width:0.5px;"/>
                                </g>
                                <g transform="matrix(0.862759,0.505616,0.505616,-0.862759,484.284,198.13)">
                                    <path d="M-5.388,-19.849L73.125,-19.849" style="fill:none;fill-rule:nonzero;stroke:url(#_Linear26);stroke-width:0.5px;"/>
                                </g>
                                <g transform="matrix(0.862759,0.505616,0.505616,-0.862759,478.252,198.13)">
                                    <path d="M-5.388,-19.849L73.125,-19.849" style="fill:none;fill-rule:nonzero;stroke:url(#_Linear27);stroke-width:0.5px;"/>
                                </g>
                                <g transform="matrix(0.862759,0.505616,0.505616,-0.862759,472.221,198.13)">
                                    <path d="M-5.388,-19.849L73.125,-19.849" style="fill:none;fill-rule:nonzero;stroke:url(#_Linear28);stroke-width:0.5px;"/>
                                </g>
                                <g transform="matrix(0.862759,0.505616,0.505616,-0.862759,466.19,198.13)">
                                    <path d="M-5.388,-19.849L73.125,-19.849" style="fill:none;fill-rule:nonzero;stroke:url(#_Linear29);stroke-width:0.5px;"/>
                                </g>
                            </g>
                        </g>
                    </g>
                    <g transform="matrix(-64.2779,64.2779,-64.2779,-64.2779,527.051,221.075)">
                        <path d="M0.658,0.208L0.289,-0.16L0.079,-0.208L0.147,-0.127L0.008,-0.188L0.017,-0.062L0.149,0.014L-0.017,-0.033L-0.016,0.002L-0.046,-0.004L-0.098,0.011L0.658,0.208Z" style="fill:url(#_Linear30);fill-rule:nonzero;"/>
                    </g>
                </g>
                <g id="montain1" serif:id="montain" transform="matrix(0.804164,0,0,0.804164,477.713,49.081)">
                    <g transform="matrix(1,0,0,1,532.67,214.086)">
                        <path d="M61.268,35.906L-61.268,35.906L0,0L30.635,17.953L61.268,35.906Z" style="fill:rgb(19,7,61);fill-rule:nonzero;"/>
                    </g>
                    <g transform="matrix(1,0,0,1,7.93776,-0.585055)">
                        <g>
                            <clipPath id="_clip31">
                                <path d="M522.3,218.924L520.016,220.495L522.375,222.696L508.674,230.346L521.99,226.783L530.661,234.222L517.854,239.252L527.413,240.09L510.82,250.578L586,250.578L555.367,232.624L524.732,214.671L522.3,218.924Z"/>
                            </clipPath>
                            <g clip-path="url(#_clip31)">
                                <g transform="matrix(0.862759,0.505616,0.505616,-0.862759,532.537,198.13)">
                                    <path d="M-5.388,-19.849L73.125,-19.849" style="fill:none;fill-rule:nonzero;stroke:url(#_Linear32);stroke-width:0.5px;"/>
                                </g>
                                <g transform="matrix(0.862759,0.505616,0.505616,-0.862759,526.506,198.13)">
                                    <path d="M-5.388,-19.849L73.125,-19.849" style="fill:none;fill-rule:nonzero;stroke:url(#_Linear33);stroke-width:0.5px;"/>
                                </g>
                                <g transform="matrix(0.862759,0.505616,0.505616,-0.862759,520.474,198.13)">
                                    <path d="M-5.388,-19.849L73.125,-19.849" style="fill:none;fill-rule:nonzero;stroke:url(#_Linear34);stroke-width:0.5px;"/>
                                </g>
                                <g transform="matrix(0.862759,0.505616,0.505616,-0.862759,514.443,198.13)">
                                    <path d="M-5.388,-19.849L73.125,-19.849" style="fill:none;fill-rule:nonzero;stroke:url(#_Linear35);stroke-width:0.5px;"/>
                                </g>
                                <g transform="matrix(0.862759,0.505616,0.505616,-0.862759,508.41,198.13)">
                                    <path d="M-5.388,-19.849L73.125,-19.849" style="fill:none;fill-rule:nonzero;stroke:url(#_Linear36);stroke-width:0.5px;"/>
                                </g>
                                <g transform="matrix(0.862759,0.505616,0.505616,-0.862759,502.379,198.13)">
                                    <path d="M-5.388,-19.849L73.125,-19.849" style="fill:none;fill-rule:nonzero;stroke:url(#_Linear37);stroke-width:0.5px;"/>
                                </g>
                                <g transform="matrix(0.862759,0.505616,0.505616,-0.862759,496.348,198.13)">
                                    <path d="M-5.388,-19.849L73.125,-19.849" style="fill:none;fill-rule:nonzero;stroke:url(#_Linear38);stroke-width:0.5px;"/>
                                </g>
                                <g transform="matrix(0.862759,0.505616,0.505616,-0.862759,490.316,198.13)">
                                    <path d="M-5.388,-19.849L73.125,-19.849" style="fill:none;fill-rule:nonzero;stroke:url(#_Linear39);stroke-width:0.5px;"/>
                                </g>
                                <g transform="matrix(0.862759,0.505616,0.505616,-0.862759,484.284,198.13)">
                                    <path d="M-5.388,-19.849L73.125,-19.849" style="fill:none;fill-rule:nonzero;stroke:url(#_Linear40);stroke-width:0.5px;"/>
                                </g>
                                <g transform="matrix(0.862759,0.505616,0.505616,-0.862759,478.252,198.13)">
                                    <path d="M-5.388,-19.849L73.125,-19.849" style="fill:none;fill-rule:nonzero;stroke:url(#_Linear41);stroke-width:0.5px;"/>
                                </g>
                                <g transform="matrix(0.862759,0.505616,0.505616,-0.862759,472.221,198.13)">
                                    <path d="M-5.388,-19.849L73.125,-19.849" style="fill:none;fill-rule:nonzero;stroke:url(#_Linear42);stroke-width:0.5px;"/>
                                </g>
                                <g transform="matrix(0.862759,0.505616,0.505616,-0.862759,466.19,198.13)">
                                    <path d="M-5.388,-19.849L73.125,-19.849" style="fill:none;fill-rule:nonzero;stroke:url(#_Linear43);stroke-width:0.5px;"/>
                                </g>
                            </g>
                        </g>
                    </g>
                    <g transform="matrix(-64.2779,64.2779,-64.2779,-64.2779,527.051,221.075)">
                        <path d="M0.658,0.208L0.289,-0.16L0.079,-0.208L0.147,-0.127L0.008,-0.188L0.017,-0.062L-0.017,-0.033L0.023,0.021L-0.046,-0.004L-0.098,0.011L0.658,0.208Z" style="fill:url(#_Linear44);fill-rule:nonzero;"/>
                    </g>
                </g>
            </g>
        </g>
    </g>
    <defs>
        <linearGradient id="_Linear3" x1="0" y1="0" x2="1" y2="0" gradientUnits="userSpaceOnUse" gradientTransform="matrix(119.952,0,0,119.952,-59.9758,50.6099)"><stop offset="0" style="stop-color:rgb(19,7,61);stop-opacity:1"/><stop offset="0.53" style="stop-color:rgb(238,42,123);stop-opacity:1"/><stop offset="1" style="stop-color:rgb(251,176,64);stop-opacity:1"/></linearGradient>
        <linearGradient id="_Linear5" x1="0" y1="0" x2="1" y2="0" gradientUnits="userSpaceOnUse" gradientTransform="matrix(82.7864,0,0,82.7864,-41.393,34.9289)"><stop offset="0" style="stop-color:rgb(19,7,61);stop-opacity:1"/><stop offset="0.53" style="stop-color:rgb(238,42,123);stop-opacity:1"/><stop offset="1" style="stop-color:rgb(251,176,64);stop-opacity:1"/></linearGradient>
        <linearGradient id="_Linear6" x1="0" y1="0" x2="1" y2="0" gradientUnits="userSpaceOnUse" gradientTransform="matrix(1,2.76285e-17,-2.76285e-17,1,0,1.02719e-05)"><stop offset="0" style="stop-color:rgb(19,7,61);stop-opacity:1"/><stop offset="1" style="stop-color:rgb(247,46,165);stop-opacity:1"/></linearGradient>
        <linearGradient id="_Linear8" x1="0" y1="0" x2="1" y2="0" gradientUnits="userSpaceOnUse" gradientTransform="matrix(118.165,69.2502,-69.2502,118.165,9.14603,-74.6105)"><stop offset="0" style="stop-color:rgb(19,7,61);stop-opacity:1"/><stop offset="1" style="stop-color:rgb(247,46,165);stop-opacity:1"/></linearGradient>
        <linearGradient id="_Linear9" x1="0" y1="0" x2="1" y2="0" gradientUnits="userSpaceOnUse" gradientTransform="matrix(118.166,69.2507,-69.2507,118.166,9.14552,-74.6108)"><stop offset="0" style="stop-color:rgb(19,7,61);stop-opacity:1"/><stop offset="1" style="stop-color:rgb(247,46,165);stop-opacity:1"/></linearGradient>
        <linearGradient id="_Linear10" x1="0" y1="0" x2="1" y2="0" gradientUnits="userSpaceOnUse" gradientTransform="matrix(118.166,69.251,-69.251,118.166,9.1459,-74.6105)"><stop offset="0" style="stop-color:rgb(19,7,61);stop-opacity:1"/><stop offset="1" style="stop-color:rgb(247,46,165);stop-opacity:1"/></linearGradient>
        <linearGradient id="_Linear11" x1="0" y1="0" x2="1" y2="0" gradientUnits="userSpaceOnUse" gradientTransform="matrix(166.117,0,0,166.117,-83.0584,70.0879)"><stop offset="0" style="stop-color:rgb(19,7,61);stop-opacity:1"/><stop offset="0.53" style="stop-color:rgb(238,42,123);stop-opacity:1"/><stop offset="1" style="stop-color:rgb(251,176,64);stop-opacity:1"/></linearGradient>
        <linearGradient id="_Linear12" x1="0" y1="0" x2="1" y2="0" gradientUnits="userSpaceOnUse" gradientTransform="matrix(166.117,0,0,166.117,-83.0584,70.0879)"><stop offset="0" style="stop-color:rgb(19,7,61);stop-opacity:1"/><stop offset="0.53" style="stop-color:rgb(238,42,123);stop-opacity:1"/><stop offset="1" style="stop-color:rgb(251,176,64);stop-opacity:1"/></linearGradient>
        <linearGradient id="_Linear14" x1="0" y1="0" x2="1" y2="0" gradientUnits="userSpaceOnUse" gradientTransform="matrix(82.7864,0,0,82.7864,-41.393,34.9289)"><stop offset="0" style="stop-color:rgb(19,7,61);stop-opacity:1"/><stop offset="0.53" style="stop-color:rgb(238,42,123);stop-opacity:1"/><stop offset="1" style="stop-color:rgb(251,176,64);stop-opacity:1"/></linearGradient>
        <linearGradient id="_Linear16" x1="0" y1="0" x2="1" y2="0" gradientUnits="userSpaceOnUse" gradientTransform="matrix(82.7864,0,0,82.7864,-41.393,34.9289)"><stop offset="0" style="stop-color:rgb(19,7,61);stop-opacity:1"/><stop offset="0.53" style="stop-color:rgb(238,42,123);stop-opacity:1"/><stop offset="1" style="stop-color:rgb(251,176,64);stop-opacity:1"/></linearGradient>
        <linearGradient id="_Linear18" x1="0" y1="0" x2="1" y2="0" gradientUnits="userSpaceOnUse" gradientTransform="matrix(-58.659,-34.3768,34.3768,-58.659,63.1981,-2.66025)"><stop offset="0" style="stop-color:rgb(247,46,165);stop-opacity:1"/><stop offset="1" style="stop-color:rgb(19,7,61);stop-opacity:1"/></linearGradient>
        <linearGradient id="_Linear19" x1="0" y1="0" x2="1" y2="0" gradientUnits="userSpaceOnUse" gradientTransform="matrix(-58.659,-34.3768,34.3768,-58.659,63.1982,-2.66015)"><stop offset="0" style="stop-color:rgb(247,46,165);stop-opacity:1"/><stop offset="1" style="stop-color:rgb(19,7,61);stop-opacity:1"/></linearGradient>
        <linearGradient id="_Linear20" x1="0" y1="0" x2="1" y2="0" gradientUnits="userSpaceOnUse" gradientTransform="matrix(-58.659,-34.3768,34.3768,-58.659,63.1985,-2.66)"><stop offset="0" style="stop-color:rgb(247,46,165);stop-opacity:1"/><stop offset="1" style="stop-color:rgb(19,7,61);stop-opacity:1"/></linearGradient>
        <linearGradient id="_Linear21" x1="0" y1="0" x2="1" y2="0" gradientUnits="userSpaceOnUse" gradientTransform="matrix(-58.659,-34.3768,34.3768,-58.659,63.1978,-2.6604)"><stop offset="0" style="stop-color:rgb(247,46,165);stop-opacity:1"/><stop offset="1" style="stop-color:rgb(19,7,61);stop-opacity:1"/></linearGradient>
        <linearGradient id="_Linear22" x1="0" y1="0" x2="1" y2="0" gradientUnits="userSpaceOnUse" gradientTransform="matrix(-58.659,-34.3769,34.3769,-58.659,63.1989,-2.65979)"><stop offset="0" style="stop-color:rgb(247,46,165);stop-opacity:1"/><stop offset="1" style="stop-color:rgb(19,7,61);stop-opacity:1"/></linearGradient>
        <linearGradient id="_Linear23" x1="0" y1="0" x2="1" y2="0" gradientUnits="userSpaceOnUse" gradientTransform="matrix(-58.659,-34.3768,34.3768,-58.659,63.1982,-2.66015)"><stop offset="0" style="stop-color:rgb(247,46,165);stop-opacity:1"/><stop offset="1" style="stop-color:rgb(19,7,61);stop-opacity:1"/></linearGradient>
        <linearGradient id="_Linear24" x1="0" y1="0" x2="1" y2="0" gradientUnits="userSpaceOnUse" gradientTransform="matrix(-58.659,-34.3769,34.3769,-58.659,63.1976,-2.66055)"><stop offset="0" style="stop-color:rgb(247,46,165);stop-opacity:1"/><stop offset="1" style="stop-color:rgb(19,7,61);stop-opacity:1"/></linearGradient>
        <linearGradient id="_Linear25" x1="0" y1="0" x2="1" y2="0" gradientUnits="userSpaceOnUse" gradientTransform="matrix(-58.659,-34.3768,34.3768,-58.659,63.1987,-2.6599)"><stop offset="0" style="stop-color:rgb(247,46,165);stop-opacity:1"/><stop offset="1" style="stop-color:rgb(19,7,61);stop-opacity:1"/></linearGradient>
        <linearGradient id="_Linear26" x1="0" y1="0" x2="1" y2="0" gradientUnits="userSpaceOnUse" gradientTransform="matrix(-58.659,-34.3768,34.3768,-58.659,63.198,-2.6603)"><stop offset="0" style="stop-color:rgb(247,46,165);stop-opacity:1"/><stop offset="1" style="stop-color:rgb(19,7,61);stop-opacity:1"/></linearGradient>
        <linearGradient id="_Linear27" x1="0" y1="0" x2="1" y2="0" gradientUnits="userSpaceOnUse" gradientTransform="matrix(-58.659,-34.3768,34.3768,-58.659,63.1982,-2.6602)"><stop offset="0" style="stop-color:rgb(247,46,165);stop-opacity:1"/><stop offset="1" style="stop-color:rgb(19,7,61);stop-opacity:1"/></linearGradient>
        <linearGradient id="_Linear28" x1="0" y1="0" x2="1" y2="0" gradientUnits="userSpaceOnUse" gradientTransform="matrix(-58.659,-34.3768,34.3768,-58.659,63.1984,-2.66005)"><stop offset="0" style="stop-color:rgb(247,46,165);stop-opacity:1"/><stop offset="1" style="stop-color:rgb(19,7,61);stop-opacity:1"/></linearGradient>
        <linearGradient id="_Linear29" x1="0" y1="0" x2="1" y2="0" gradientUnits="userSpaceOnUse" gradientTransform="matrix(-58.659,-34.3768,34.3768,-58.659,63.1977,-2.66045)"><stop offset="0" style="stop-color:rgb(247,46,165);stop-opacity:1"/><stop offset="1" style="stop-color:rgb(19,7,61);stop-opacity:1"/></linearGradient>
        <linearGradient id="_Linear30" x1="0" y1="0" x2="1" y2="0" gradientUnits="userSpaceOnUse" gradientTransform="matrix(1,4.96446e-18,-4.96446e-18,1,0,6.96196e-06)"><stop offset="0" style="stop-color:rgb(247,46,165);stop-opacity:1"/><stop offset="1" style="stop-color:rgb(19,7,61);stop-opacity:1"/></linearGradient>
        <linearGradient id="_Linear32" x1="0" y1="0" x2="1" y2="0" gradientUnits="userSpaceOnUse" gradientTransform="matrix(-58.659,-34.3768,34.3768,-58.659,63.1981,-2.66025)"><stop offset="0" style="stop-color:rgb(247,46,165);stop-opacity:1"/><stop offset="1" style="stop-color:rgb(19,7,61);stop-opacity:1"/></linearGradient>
        <linearGradient id="_Linear33" x1="0" y1="0" x2="1" y2="0" gradientUnits="userSpaceOnUse" gradientTransform="matrix(-58.659,-34.3768,34.3768,-58.659,63.1982,-2.66015)"><stop offset="0" style="stop-color:rgb(247,46,165);stop-opacity:1"/><stop offset="1" style="stop-color:rgb(19,7,61);stop-opacity:1"/></linearGradient>
        <linearGradient id="_Linear34" x1="0" y1="0" x2="1" y2="0" gradientUnits="userSpaceOnUse" gradientTransform="matrix(-58.659,-34.3768,34.3768,-58.659,63.1985,-2.66)"><stop offset="0" style="stop-color:rgb(247,46,165);stop-opacity:1"/><stop offset="1" style="stop-color:rgb(19,7,61);stop-opacity:1"/></linearGradient>
        <linearGradient id="_Linear35" x1="0" y1="0" x2="1" y2="0" gradientUnits="userSpaceOnUse" gradientTransform="matrix(-58.659,-34.3768,34.3768,-58.659,63.1978,-2.6604)"><stop offset="0" style="stop-color:rgb(247,46,165);stop-opacity:1"/><stop offset="1" style="stop-color:rgb(19,7,61);stop-opacity:1"/></linearGradient>
        <linearGradient id="_Linear36" x1="0" y1="0" x2="1" y2="0" gradientUnits="userSpaceOnUse" gradientTransform="matrix(-58.659,-34.3769,34.3769,-58.659,63.1989,-2.65979)"><stop offset="0" style="stop-color:rgb(247,46,165);stop-opacity:1"/><stop offset="1" style="stop-color:rgb(19,7,61);stop-opacity:1"/></linearGradient>
        <linearGradient id="_Linear37" x1="0" y1="0" x2="1" y2="0" gradientUnits="userSpaceOnUse" gradientTransform="matrix(-58.659,-34.3768,34.3768,-58.659,63.1982,-2.66015)"><stop offset="0" style="stop-color:rgb(247,46,165);stop-opacity:1"/><stop offset="1" style="stop-color:rgb(19,7,61);stop-opacity:1"/></linearGradient>
        <linearGradient id="_Linear38" x1="0" y1="0" x2="1" y2="0" gradientUnits="userSpaceOnUse" gradientTransform="matrix(-58.659,-34.3769,34.3769,-58.659,63.1976,-2.66055)"><stop offset="0" style="stop-color:rgb(247,46,165);stop-opacity:1"/><stop offset="1" style="stop-color:rgb(19,7,61);stop-opacity:1"/></linearGradient>
        <linearGradient id="_Linear39" x1="0" y1="0" x2="1" y2="0" gradientUnits="userSpaceOnUse" gradientTransform="matrix(-58.659,-34.3768,34.3768,-58.659,63.1987,-2.6599)"><stop offset="0" style="stop-color:rgb(247,46,165);stop-opacity:1"/><stop offset="1" style="stop-color:rgb(19,7,61);stop-opacity:1"/></linearGradient>
        <linearGradient id="_Linear40" x1="0" y1="0" x2="1" y2="0" gradientUnits="userSpaceOnUse" gradientTransform="matrix(-58.659,-34.3768,34.3768,-58.659,63.198,-2.6603)"><stop offset="0" style="stop-color:rgb(247,46,165);stop-opacity:1"/><stop offset="1" style="stop-color:rgb(19,7,61);stop-opacity:1"/></linearGradient>
        <linearGradient id="_Linear41" x1="0" y1="0" x2="1" y2="0" gradientUnits="userSpaceOnUse" gradientTransform="matrix(-58.659,-34.3768,34.3768,-58.659,63.1982,-2.6602)"><stop offset="0" style="stop-color:rgb(247,46,165);stop-opacity:1"/><stop offset="1" style="stop-color:rgb(19,7,61);stop-opacity:1"/></linearGradient>
        <linearGradient id="_Linear42" x1="0" y1="0" x2="1" y2="0" gradientUnits="userSpaceOnUse" gradientTransform="matrix(-58.659,-34.3768,34.3768,-58.659,63.1984,-2.66005)"><stop offset="0" style="stop-color:rgb(247,46,165);stop-opacity:1"/><stop offset="1" style="stop-color:rgb(19,7,61);stop-opacity:1"/></linearGradient>
        <linearGradient id="_Linear43" x1="0" y1="0" x2="1" y2="0" gradientUnits="userSpaceOnUse" gradientTransform="matrix(-58.659,-34.3768,34.3768,-58.659,63.1977,-2.66045)"><stop offset="0" style="stop-color:rgb(247,46,165);stop-opacity:1"/><stop offset="1" style="stop-color:rgb(19,7,61);stop-opacity:1"/></linearGradient>
        <linearGradient id="_Linear44" x1="0" y1="0" x2="1" y2="0" gradientUnits="userSpaceOnUse" gradientTransform="matrix(1,4.96446e-18,-4.96446e-18,1,0,6.96196e-06)"><stop offset="0" style="stop-color:rgb(247,46,165);stop-opacity:1"/><stop offset="1" style="stop-color:rgb(19,7,61);stop-opacity:1"/></linearGradient>
    </defs>
</svg>
